<svg xmlns="http://www.w3.org/2000/svg" xmlns:xlink="http://www.w3.org/1999/xlink" version="1.1" width="256" height="256" viewBox="0 0 256 256" xml:space="preserve">
<desc>Created with Fabric.js 1.7.22</desc>
<defs>
</defs>
<g transform="translate(128 128) scale(0.72 0.72)" style="">
	<g style="stroke: none; stroke-width: 0; stroke-dasharray: none; stroke-linecap: butt; stroke-linejoin: miter; stroke-miterlimit: 10; fill: none; fill-rule: nonzero; opacity: 1;" transform="translate(-175.05 -175.05000000000004) scale(3.89 3.89)" >
	<path d="M 52.885 75.154 h -15.77 c -1.864 0 -3.381 -1.517 -3.381 -3.381 v -7.578 c 0 -4.308 -2.004 -8.363 -5.499 -11.129 c -7.019 -5.555 -10.832 -14.215 -10.2 -23.166 c 0.947 -13.42 11.79 -24.176 25.222 -25.02 C 50.809 4.4 58.006 6.988 63.504 12.15 c 5.421 5.092 8.53 12.275 8.53 19.71 c 0 8.405 -3.813 16.189 -10.459 21.355 c -3.324 2.583 -5.31 6.688 -5.31 10.979 v 7.58 C 56.266 73.638 54.749 75.154 52.885 75.154 z M 45.018 6.826 c -0.543 0 -1.087 0.017 -1.636 0.051 C 30.946 7.658 20.907 17.616 20.03 30.041 c -0.585 8.292 2.946 16.313 9.446 21.457 c 3.977 3.147 6.258 7.775 6.258 12.697 v 7.578 c 0 0.762 0.62 1.381 1.381 1.381 h 15.77 c 0.762 0 1.381 -0.619 1.381 -1.381 v -7.58 c 0 -4.903 2.273 -9.599 6.083 -12.559 c 6.155 -4.783 9.686 -11.992 9.686 -19.775 c 0 -6.985 -2.806 -13.468 -7.899 -18.252 C 57.442 9.202 51.416 6.826 45.018 6.826 z" style="stroke: none; stroke-width: 1; stroke-dasharray: none; stroke-linecap: butt; stroke-linejoin: miter; stroke-miterlimit: 10; fill: rgb(0,0,0); fill-rule: nonzero; opacity: 1;" transform=" matrix(1 0 0 1 0 0) " stroke-linecap="round" />
	<path d="M 48.409 85.174 h -6.818 c -2.929 0 -5.311 -2.382 -5.311 -5.311 v -5.709 c 0 -0.553 0.448 -1 1 -1 H 52.72 c 0.553 0 1 0.447 1 1 v 5.709 C 53.72 82.792 51.338 85.174 48.409 85.174 z M 38.28 75.154 v 4.709 c 0 1.825 1.485 3.311 3.311 3.311 h 6.818 c 1.825 0 3.311 -1.485 3.311 -3.311 v -4.709 H 38.28 z" style="stroke: none; stroke-width: 1; stroke-dasharray: none; stroke-linecap: butt; stroke-linejoin: miter; stroke-miterlimit: 10; fill: rgb(0,0,0); fill-rule: nonzero; opacity: 1;" transform=" matrix(1 0 0 1 0 0) " stroke-linecap="round" />
	<path d="M 89 32.334 H 78.418 c -0.553 0 -1 -0.448 -1 -1 s 0.447 -1 1 -1 H 89 c 0.553 0 1 0.448 1 1 S 89.553 32.334 89 32.334 z" style="stroke: none; stroke-width: 1; stroke-dasharray: none; stroke-linecap: butt; stroke-linejoin: miter; stroke-miterlimit: 10; fill: rgb(0,0,0); fill-rule: nonzero; opacity: 1;" transform=" matrix(1 0 0 1 0 0) " stroke-linecap="round" />
	<path d="M 11.583 32.334 H 1 c -0.552 0 -1 -0.448 -1 -1 s 0.448 -1 1 -1 h 10.583 c 0.552 0 1 0.448 1 1 S 12.135 32.334 11.583 32.334 z" style="stroke: none; stroke-width: 1; stroke-dasharray: none; stroke-linecap: butt; stroke-linejoin: miter; stroke-miterlimit: 10; fill: rgb(0,0,0); fill-rule: nonzero; opacity: 1;" transform=" matrix(1 0 0 1 0 0) " stroke-linecap="round" />
	<path d="M 74.229 16.133 c -0.352 0 -0.693 -0.186 -0.876 -0.515 c -0.268 -0.483 -0.093 -1.092 0.391 -1.359 l 9.256 -5.13 c 0.482 -0.268 1.092 -0.093 1.359 0.39 s 0.093 1.092 -0.391 1.359 l -9.256 5.13 C 74.559 16.093 74.393 16.133 74.229 16.133 z" style="stroke: none; stroke-width: 1; stroke-dasharray: none; stroke-linecap: butt; stroke-linejoin: miter; stroke-miterlimit: 10; fill: rgb(0,0,0); fill-rule: nonzero; opacity: 1;" transform=" matrix(1 0 0 1 0 0) " stroke-linecap="round" />
	<path d="M 6.518 53.666 c -0.352 0 -0.693 -0.186 -0.875 -0.516 c -0.268 -0.482 -0.093 -1.091 0.39 -1.359 l 9.255 -5.131 c 0.483 -0.267 1.091 -0.093 1.359 0.391 c 0.268 0.482 0.093 1.091 -0.39 1.359 l -9.255 5.131 C 6.848 53.626 6.682 53.666 6.518 53.666 z" style="stroke: none; stroke-width: 1; stroke-dasharray: none; stroke-linecap: butt; stroke-linejoin: miter; stroke-miterlimit: 10; fill: rgb(0,0,0); fill-rule: nonzero; opacity: 1;" transform=" matrix(1 0 0 1 0 0) " stroke-linecap="round" />
	<path d="M 15.771 16.133 c -0.164 0 -0.33 -0.04 -0.484 -0.125 l -9.255 -5.13 C 5.549 10.609 5.374 10 5.642 9.518 C 5.91 9.035 6.518 8.86 7.001 9.128 l 9.255 5.13 c 0.483 0.268 0.658 0.876 0.39 1.359 C 16.464 15.947 16.123 16.133 15.771 16.133 z" style="stroke: none; stroke-width: 1; stroke-dasharray: none; stroke-linecap: butt; stroke-linejoin: miter; stroke-miterlimit: 10; fill: rgb(0,0,0); fill-rule: nonzero; opacity: 1;" transform=" matrix(1 0 0 1 0 0) " stroke-linecap="round" />
	<path d="M 83.482 53.666 c -0.164 0 -0.33 -0.04 -0.483 -0.125 l -9.256 -5.131 c -0.483 -0.269 -0.658 -0.877 -0.391 -1.359 c 0.268 -0.484 0.878 -0.658 1.359 -0.391 l 9.256 5.131 c 0.483 0.269 0.658 0.877 0.391 1.359 C 84.176 53.48 83.834 53.666 83.482 53.666 z" style="stroke: none; stroke-width: 1; stroke-dasharray: none; stroke-linecap: butt; stroke-linejoin: miter; stroke-miterlimit: 10; fill: rgb(0,0,0); fill-rule: nonzero; opacity: 1;" transform=" matrix(1 0 0 1 0 0) " stroke-linecap="round" />
	<path d="M 42.162 46.112 c -0.006 0 -0.09 -0.001 -0.097 -0.001 c -1.274 -0.028 -2.479 -0.596 -3.309 -1.558 l -6.782 -7.852 c -1.622 -1.878 -1.413 -4.725 0.464 -6.347 c 0.91 -0.786 2.07 -1.163 3.27 -1.083 c 1.199 0.088 2.292 0.637 3.078 1.547 l 3.525 4.082 l 11.037 -11.69 c 1.705 -1.805 4.559 -1.885 6.362 -0.183 c 1.804 1.704 1.886 4.558 0.182 6.361 L 45.434 44.702 C 44.587 45.598 43.395 46.112 42.162 46.112 z M 42.162 44.112 c 0.685 0 1.348 -0.286 1.818 -0.784 l 14.458 -15.313 c 0.459 -0.485 0.701 -1.121 0.682 -1.788 c -0.019 -0.667 -0.297 -1.288 -0.782 -1.746 c -1.003 -0.946 -2.589 -0.9 -3.535 0.102 L 43.004 37.078 c -0.194 0.206 -0.468 0.322 -0.749 0.313 c -0.283 -0.006 -0.55 -0.132 -0.735 -0.346 l -4.249 -4.919 c -0.437 -0.506 -1.044 -0.812 -1.71 -0.86 c -0.063 -0.004 -0.125 -0.007 -0.186 -0.007 c -0.599 0 -1.172 0.213 -1.63 0.608 c -1.043 0.901 -1.159 2.483 -0.258 3.527 l 6.782 7.852 c 0.461 0.535 1.13 0.85 1.836 0.865" style="stroke: none; stroke-width: 1; stroke-dasharray: none; stroke-linecap: butt; stroke-linejoin: miter; stroke-miterlimit: 10; fill: rgb(0,0,0); fill-rule: nonzero; opacity: 1;" transform=" matrix(1 0 0 1 0 0) " stroke-linecap="round" />
</g>
</g>
</svg>